<svg width="19" height="19" viewBox="0 0 19 19" fill="none" xmlns="http://www.w3.org/2000/svg">
<path fill-rule="evenodd" clip-rule="evenodd" d="M0.823242 1.5759C0.823242 1.09265 1.21475 0.700897 1.6977 0.700897H6.72584C7.11627 0.700897 7.4594 0.959878 7.56666 1.33552L8.82369 5.73787C8.92816 6.10374 8.78435 6.49522 8.46794 6.70629L7.01322 7.67671C7.16656 8.52852 7.73803 9.52707 8.60121 10.3908C9.4644 11.2545 10.4623 11.8263 11.3136 11.9798L12.2834 10.5241C12.4944 10.2075 12.8856 10.0636 13.2513 10.1682L17.6509 11.426C18.0263 11.5333 18.2851 11.8766 18.2851 12.2673V17.2986C18.2851 17.7818 17.8936 18.1736 17.4106 18.1736C11.9468 18.1736 7.75004 16.888 4.92904 14.0652C2.10803 11.2425 0.823242 7.04311 0.823242 1.5759ZM2.58404 2.4509C2.71545 7.21186 3.93571 10.5964 6.16571 12.8278C8.39571 15.0592 11.7782 16.2802 16.5362 16.4117V12.9273L13.3845 12.0263L12.4816 13.3816C12.3194 13.625 12.0464 13.7712 11.754 13.7712C10.1709 13.7712 8.54705 12.8115 7.36454 11.6282C6.18204 10.445 5.22287 8.82013 5.22287 7.23606C5.22287 6.9435 5.36899 6.6703 5.61226 6.50802L6.96671 5.6045L6.06624 2.4509H2.58404Z" fill="black"/>
</svg>
